<?xml version="1.0" encoding="utf-8"?>
<!-- Generator: Adobe Illustrator 26.4.1, SVG Export Plug-In . SVG Version: 6.00 Build 0)  -->
<svg version="1.1" id="Calque_1" xmlns="http://www.w3.org/2000/svg" xmlns:xlink="http://www.w3.org/1999/xlink" x="0px" y="0px"
	 viewBox="0 0 1000 1000" style="enable-background:new 0 0 1000 1000;" xml:space="preserve">
<style type="text/css">
	.st0{fill:url(#SVGID_1_);}
</style>
<linearGradient id="SVGID_1_" gradientUnits="userSpaceOnUse" x1="636.9156" y1="266.8062" x2="364.4088" y2="731.5237">
	<stop  offset="0" style="stop-color:#6ECFFF"/>
	<stop  offset="1" style="stop-color:#1D1F1F"/>
</linearGradient>
<path class="st0" d="M256.6,397.2c-2.6,5.7-2.9,9.8,2,14.4c18.2,17,35.4,35.2,54.4,51.2c62.1,52.4,130.6,95.3,202.6,132.5
	c59,30.4,119.7,56.6,184.7,71.5c6.1,1.4,10,0.4,13.9-5c47.9-65.6,64.6-138.4,47.4-217.6C735.3,323.4,629.4,236,499,234.8
	c-10.6,0.9-25,0.9-38.9,3.5C364.8,255.8,296.7,308.6,256.6,397.2L256.6,397.2z M914.3,668.9c-21.6-34.2-49.6-63.1-79-90.5
	c-16-15-32.8-29.2-49.5-43.8c-2.4-2.1-4.9-1.3-5.6,1.9c-4,18.5-7.6,35.9-11.8,53.2c-1.3,5.4-0.6,9.1,2.3,14.1
	c7.8,13.6,16.2,27.4,20.8,42.2c5.4,17.4-3.3,30.4-21.2,35c-10.2,2.6-21.3,4.5-31.6,3.2c-23-2.8-46.2-6.2-68.5-12.3
	c-73.1-19.9-141-52.4-206.5-89.8c-76.4-43.6-149.1-92.4-210.4-156.4c-18.4-19.2-35.8-39.4-44-65.5c-6.9-21.8,0.9-36.6,23.4-41.2
	c12.7-2.6,26.3-1.1,39.4-1.9c4.8-0.3,10.8-0.4,14.1-3.2c14.1-11.9,27.5-24.6,41.5-37.5c2.4-2.2,3.6-4.3,2.8-4.8
	c-0.5-0.3-1-0.5-1.6-0.7c-43.3-12.9-86.2-27.1-129.9-38.2c-30.7-7.8-62.5-10.4-94.3-4.5c-35,6.5-50,30-38.3,63.7
	c5.6,16.1,13.9,32,23.7,46.1c39.5,57.1,91.4,102.1,145.5,144.6c97,76.3,201.9,140,312.8,193.9c80,38.9,162.1,72.8,249.7,91
	c32.1,6.7,64.5,10.8,97.2,4.9c35.4-6.4,50.1-30.6,38.2-64.6C928.7,694.2,922,681.1,914.3,668.9L914.3,668.9z M631.8,733.9
	c2.9-1.5,2.8-3.7-0.2-5c-140.5-59.4-269.7-134.1-390.8-225.4c-2.6-1.9-4.7-0.9-4.8,2.3c-0.3,86.7,48.9,184,143.5,231.7
	C463.7,780,547.4,777,631.8,733.9z"/>
</svg>
