<svg id="Calque_1" data-name="Calque 1" xmlns="http://www.w3.org/2000/svg" viewBox="0 0 875 820.1"><defs><style>.cls-1{fill:#e1eaec;}</style></defs><path class="cls-1" d="M891.3,376.8C838.6,211.1,682.8,90.1,501.1,90.1,317.2,90.1,161.4,210.5,109,376.8H62.5V623.5H109c52.4,166,208.2,286.7,391.5,286.7,182.6,0,337.9-120.7,390.5-286.7h46.5V376.8ZM740.1,232.1c-17.6,7.1-34.2,13.6-49.6,19.7-16-28-31.7-54.8-47.4-81.9C678.2,184.6,710.2,205,740.1,232.1ZM657.8,433.8h31.7L705,517l18.2-83.2h27.1L768.8,517l15.1-83.2h31.7l-28,132.7H754.3l-17.9-75.8-17.2,75.8h-33L657.8,433.8Zm13.9,189.7c-4,18.5-8.3,37-12,55.4-1.2,5.5-3.1,7.4-8.9,6.5-41.3-7.4-82.5-14.5-125.4-21.6V623.5Zm-146-480.4c59.4,22.2,88.4,70.5,115.2,125.3-39.4,5.9-77,11.1-115.2,16.3Zm0,190.6c15.1-1.5,31.1-2.2,46.8-4.6,25.6-4,51.4-8.9,77-13.5,4.9-1.2,8-1.8,9.9,4.6,5.5,18.5,9.9,37.6,13.9,56.7H525.7V333.7ZM474.6,144.9V282.3c-38.5-.3-76.1-6.5-113.3-15.4,19.7-57,75.1-117.1,113.3-122ZM329.2,376.8c3.7-18.5,7.4-36.6,10.8-55.1,1.5-6.5,4.3-8,10.8-6.2,39.4,9.9,79.2,15.1,119.8,17.2a24.64,24.64,0,0,1,4,.9v43.1H329.2v.1Zm13,57-28,132.7H280.9L263,490.8l-17.2,75.8H212.5l-28-132.7h31.7l15.1,83.2,18.5-83.2h27.1l18.5,83.2,15.1-83.2h31.7v-.1Zm14.7-264c-15.7,27.1-31.1,53.9-47.1,81.9-15.7-6.2-31.7-12.3-50.2-19.4C289.5,205.3,321.8,184.6,356.9,169.8ZM223,270.3c24,10.2,47.1,19.7,71.1,29.6a558.83,558.83,0,0,0-18.2,77H162A348.91,348.91,0,0,1,223,270.3ZM162,623.5H276a544.69,544.69,0,0,0,18.2,76.7c-24,10.2-47.1,20-71.1,29.9A356.7,356.7,0,0,1,162,623.5Zm97.6,144.8c18.5-7.4,34.5-13.5,50.2-19.7,16,27.7,31.4,54.8,46.8,81.6-34.8-14.2-66.5-35.1-97-61.9Zm215,87.1c-42.8-8-90.9-64.1-112.7-121,21.2-8.6,94.2-18.8,112.7-15.4V855.4Zm0-189.1c-20.9,2.2-41.9,4-62.5,6.8-20.6,3.4-41.3,7.7-61.9,12-5.2.9-7.7.6-9.5-5.2-5.5-18.5-9.9-37.6-13.6-56.4H474.6v42.8Zm25.2-175.5-17.6,75.8h-33L421,433.8h32L468.1,517l18.2-83.2h27.1L531.9,517l15.4-83.2H579L550.7,566.5h-33l-17.9-75.7Zm25.6,364.6V715.6c38.2,5.2,75.8,10.5,113.6,15.7C620.6,785.2,568.5,848.7,525.4,855.4Zm117.7-24.6c15.7-27.1,30.8-53.9,47.4-82.2,15.4,6.2,31.7,12.3,49.6,19.4A354.24,354.24,0,0,1,643.1,830.8ZM777,730.1c-23.4-9.9-46.8-19.7-71.1-29.6,8-25.3,13.6-51.1,18.2-77h114A361,361,0,0,1,777,730.1ZM724.1,376.8c-4.6-25.9-10.2-51.4-18.2-76.7,23.7-9.9,46.8-19.7,71.1-29.9a352.16,352.16,0,0,1,61,106.6Z" transform="translate(-62.5 -90.1)"/></svg>